# xmcd CD database file
#
# Track frame offsets:
#	187
#	19517
#	41397
#
# Disc length: 807 seconds
#
# Revision: 0
# Processed by: cddbd v1.5.1PL0 Copyright (c) Steve Scherf et al.
# Submitted via: CDex 1.51
#
DISCID=15032503
DTITLE=シャ乱Q - 上京物語
DYEAR=1994
DGENRE=JPop
TTITLE0=上京物語
TTITLE1=まさかの大誤算
TTITLE2=上京物語 (オリジナル・カラオケ)
EXTD=YEAR: 1994
EXTT0=
EXTT1=
EXTT2=
PLAYORDER=
